<svg height="50" viewBox="0 0 64 64" width="50" xmlns="http://www.w3.org/2000/svg"><g fill="none" fill-rule="evenodd"><g stroke="#979797" stroke-linecap="round" stroke-width="2" transform="translate(44 9)"><path d="m0 6.184 7.615-1.366 3.941-4.818"/><path d="m2 16.184 7.615-1.366 3.941-4.818"/><path d="m5.866 22.143 7.134 8.099 4.852 1.214"/></g><g stroke="#979797" stroke-linecap="round" stroke-width="2" transform="matrix(-1 0 0 1 22 9)"><path d="m0 6.184 7.615-1.366 3.941-4.818"/><path d="m2 16.184 7.615-1.366 3.941-4.818"/><path d="m5.866 22.143 7.134 8.099 4.852 1.214"/></g><path d="m33 58c9.9411255 0 20-10.745166 20-24s-10.0588745-24-20-24-20 10.745166-20 24 10.0588745 24 20 24z" fill="#e43535"/><path d="m33 25.0046594c2.5873419 0 12-5.6909509 12-9.0046594s-5.372583-6-12-6-12 2.6862915-12 6 9.4126581 9.0046594 12 9.0046594z" fill="#595959"/><ellipse cx="33" cy="10" fill="#979797" rx="8" ry="2"/><path d="m33.0229615 57v-32.4982329" stroke="#595959" stroke-linecap="round" stroke-width="2"/><g fill="#d8d8d8"><circle cx="44" cy="29" r="2"/><circle cx="42" cy="43" r="2"/><circle cx="27" cy="43" r="2"/><circle cx="20" cy="32" r="2"/></g></g></svg>