<svg height="64" viewBox="0 0 64 64" width="64" xmlns="http://www.w3.org/2000/svg"><g fill="none" fill-rule="evenodd"><path d="m54.8414725 37.5787966-3.5829256-16.5296263m2.9672288 17.9519239 7.8472898-19.7484437" stroke="#bd7575" stroke-linecap="round" stroke-width="2"/><path d="m14.6278307 47.5384252-7.41275068 4.7158848h41.39716588c4.1724297 0 7.5548522-3.3899103 7.5548522-7.5526192v-7.5526193h-10.6720777z" fill="#ffaf40"/><path d="m47.5811403 37.9111673s-.2834641-7.9585608-6.3636545-16.04154c-6.0801905-8.0829793-8.4751432-9.2240508-11.8735305-9.2240508-3.3983872 0-9.0079597-1.8296858-15.8688235 1.5941161-6.8608637 3.423802-9.43106325 7.5884976-10.86699375 11.9565109-1.43593049 4.3680133 1.37453511 13.4764385 7.62599855 17.2814609 1.8684228 1.1372362 1.3987574 6.1541578 14.5520178 5.5371083 13.1532605-.6170494 22.7949859-11.1036054 22.7949859-11.1036054z" fill="#bd7575"/><path d="m46.5772929 37.3100679s-2.9349963-32.28032261-30.3938318-23.8005326c-27.4588354 8.4797899-7.64085442 35.605811 4.5371003 35.605811 12.1779548 0 23.5192653-16.015725 9.0299111-23.8769568-12.7612506-6.9236452-20.22330255 11.4805531-11.4843294 14.3439976 8.7389732 2.8634446 11.4843294-4.5410513 8.7695323-7.6592926" stroke="#9c4d4d" stroke-linecap="round" stroke-width="2"/></g></svg>